<svg xmlns="http://www.w3.org/2000/svg" viewBox="0 0 960 220" role="img" aria-labelledby="title desc">
<title id="title">Futurekind Alliance wordmark</title><desc id="desc">Futurekind Alliance wordmark with emblem and civicnet line.</desc><defs><linearGradient id="w" x1="0" x2="1"><stop stop-color="#e9fbff"/><stop offset=".55" stop-color="#65f7ff"/><stop offset="1" stop-color="#c8ff6a"/></linearGradient><linearGradient id="ring" x1="0" y1="0" x2="1" y2="1"><stop stop-color="#65f7ff"/><stop offset=".52" stop-color="#c8ff6a"/><stop offset="1" stop-color="#9b7cff"/></linearGradient></defs><rect width="960" height="220" rx="36" fill="#02040c"/><g transform="translate(52 35)"><circle cx="75" cy="75" r="70" fill="none" stroke="url(#ring)" stroke-width="6"/><circle cx="75" cy="75" r="45" fill="none" stroke="#65f7ff" stroke-opacity=".42"/><path d="M75 20l15 43 46 1-37 27 14 44-38-27-38 27 14-44-37-27 46-1 15-43z" fill="url(#w)"/><path d="M31 118c27-16 61-23 88-14M29 38c30 21 65 25 96 4" fill="none" stroke="#65f7ff" stroke-width="2" opacity=".45"/></g><g font-family="Inter,system-ui,sans-serif"><text x="180" y="96" fill="url(#w)" font-size="58" font-weight="900" letter-spacing="-2">Futurekind</text><text x="183" y="145" fill="#c8ff6a" font-size="31" font-weight="800" letter-spacing="10">ALLIANCE</text><text x="186" y="181" fill="#8fb3c4" font-size="15" font-weight="700" letter-spacing="3">MAX FREEDOM · SHARED ABUNDANCE · NO DOMINATION</text></g><path d="M760 44h116M760 176h116M840 44v132" stroke="#65f7ff" stroke-opacity=".28" stroke-width="2"/><circle cx="760" cy="44" r="5" fill="#65f7ff"/><circle cx="876" cy="44" r="5" fill="#c8ff6a"/><circle cx="840" cy="176" r="5" fill="#9b7cff"/><circle cx="760" cy="176" r="5" fill="#ff5ea8"/></svg>
