<svg xmlns="http://www.w3.org/2000/svg" viewBox="0 0 512 512" role="img" aria-labelledby="title desc">
<title id="title">Futurekind Alliance emblem</title><desc id="desc">A civic star, orbit ring, and interlinked federation nodes in cyan, lime, and violet.</desc>
<defs><radialGradient id="g" cx="50%" cy="42%" r="58%"><stop offset="0" stop-color="#e9fbff"/><stop offset=".38" stop-color="#65f7ff"/><stop offset=".78" stop-color="#9b7cff"/><stop offset="1" stop-color="#07111f"/></radialGradient><linearGradient id="r" x1="76" y1="80" x2="438" y2="430"><stop stop-color="#65f7ff"/><stop offset=".48" stop-color="#c8ff6a"/><stop offset="1" stop-color="#9b7cff"/></linearGradient><filter id="glow" x="-40%" y="-40%" width="180%" height="180%"><feGaussianBlur stdDeviation="8" result="b"/><feMerge><feMergeNode in="b"/><feMergeNode in="SourceGraphic"/></feMerge></filter></defs>
<rect width="512" height="512" rx="112" fill="#02040c"/><circle cx="256" cy="256" r="204" fill="none" stroke="url(#r)" stroke-width="11" opacity=".95"/><circle cx="256" cy="256" r="150" fill="none" stroke="#65f7ff" stroke-width="2" opacity=".38"/><circle cx="256" cy="256" r="94" fill="none" stroke="#c8ff6a" stroke-width="2" opacity=".35"/>
<path d="M256 91l34 109 114 2-93 66 34 109-89-66-89 66 34-109-93-66 114-2 34-109z" fill="url(#g)" filter="url(#glow)"/>
<path d="M133 352c72-42 173-42 246 0M126 160c82 55 180 55 261 0M256 69v374M69 256h374" fill="none" stroke="#65f7ff" stroke-width="3" opacity=".28"/>
<g fill="#02040c" stroke-width="9"><circle cx="133" cy="352" r="18" stroke="#65f7ff"/><circle cx="379" cy="352" r="18" stroke="#c8ff6a"/><circle cx="126" cy="160" r="15" stroke="#9b7cff"/><circle cx="387" cy="160" r="15" stroke="#65f7ff"/></g>
<text x="256" y="462" text-anchor="middle" fill="#e9fbff" font-family="Inter,system-ui,sans-serif" font-size="25" font-weight="800" letter-spacing="5">FKA 2040</text>
</svg>
