<svg xmlns="http://www.w3.org/2000/svg" viewBox="0 0 1200 760" role="img" aria-labelledby="title desc"><title id="title">Futurekind civicnet federation map</title><desc id="desc">Stylised 2040 network map of municipalities, commons trusts, adaptation settlements, and orbital chapters.</desc><defs><radialGradient id="bg" cx="50%" cy="40%" r="70%"><stop offset="0" stop-color="#10243e"/><stop offset="1" stop-color="#02040c"/></radialGradient><filter id="blur"><feGaussianBlur stdDeviation="7"/></filter></defs><rect width="1200" height="760" rx="44" fill="url(#bg)"/><g opacity=".15" stroke="#65f7ff" stroke-width="1"><path d="M0 120h1200M0 240h1200M0 360h1200M0 480h1200M0 600h1200M150 0v760M300 0v760M450 0v760M600 0v760M750 0v760M900 0v760M1050 0v760"/></g><g fill="none" stroke="#65f7ff" stroke-width="3" opacity=".5"><path d="M202 322C315 214 410 210 535 292S762 430 934 288"/><path d="M232 510C394 430 471 514 610 470s205-173 350-108"/><path d="M346 164c110 92 179 112 315 88s205 6 312 114"/><path d="M535 292l75 178M610 470l146-73M756 397l178-109M346 164l-114 346"/></g><g filter="url(#blur)" opacity=".45"><circle cx="535" cy="292" r="54" fill="#65f7ff"/><circle cx="610" cy="470" r="48" fill="#c8ff6a"/><circle cx="934" cy="288" r="44" fill="#9b7cff"/><circle cx="232" cy="510" r="34" fill="#ff5ea8"/></g><g font-family="Inter,system-ui,sans-serif" font-weight="800"><g fill="#02040c" stroke-width="7"><circle cx="202" cy="322" r="20" stroke="#65f7ff"/><circle cx="346" cy="164" r="20" stroke="#c8ff6a"/><circle cx="535" cy="292" r="28" stroke="#65f7ff"/><circle cx="610" cy="470" r="26" stroke="#c8ff6a"/><circle cx="756" cy="397" r="22" stroke="#9b7cff"/><circle cx="934" cy="288" r="25" stroke="#9b7cff"/><circle cx="232" cy="510" r="21" stroke="#ff5ea8"/><circle cx="960" cy="362" r="18" stroke="#65f7ff"/></g><text x="70" y="84" fill="#e9fbff" font-size="34">Civicnet federation relay</text><text x="72" y="123" fill="#8fb3c4" font-size="18" letter-spacing="3">FKA PUBLIC MAP · UPDATED 2040.11.03</text><text x="185" y="286" fill="#e9fbff" font-size="16">Danube Compact</text><text x="318" y="130" fill="#e9fbff" font-size="16">North Atlantic</text><text x="490" y="252" fill="#e9fbff" font-size="16">Rights Mesh</text><text x="575" y="528" fill="#e9fbff" font-size="16">Accra Works</text><text x="782" y="440" fill="#e9fbff" font-size="16">Kobe–Oslo Audit</text><text x="896" y="252" fill="#e9fbff" font-size="16">L5 Habitat</text><text x="130" y="556" fill="#e9fbff" font-size="16">Safe Passage</text></g><g transform="translate(820 570)" font-family="Inter,system-ui,sans-serif"><rect width="286" height="116" rx="22" fill="#07111f" fill-opacity=".82" stroke="#65f7ff" stroke-opacity=".3"/><circle cx="32" cy="33" r="7" fill="#65f7ff"/><text x="52" y="39" fill="#cfefff" font-size="15">municipality / city federation</text><circle cx="32" cy="61" r="7" fill="#c8ff6a"/><text x="52" y="67" fill="#cfefff" font-size="15">commons trust / cooperative</text><circle cx="32" cy="89" r="7" fill="#9b7cff"/><text x="52" y="95" fill="#cfefff" font-size="15">habitat / remote chapter</text></g></svg>
