<svg xmlns="http://www.w3.org/2000/svg" viewBox="0 0 1200 760" role="img" aria-labelledby="title desc">
  <title id="title">Futurekind civicnet federation map</title>
  <desc id="desc">Stylised 2040 network map of municipalities, commons trusts, adaptation settlements, and remote research chapters.</desc>
  <defs>
    <radialGradient id="bg" cx="52%" cy="42%" r="76%">
      <stop offset="0" stop-color="#13253b"/>
      <stop offset="0.62" stop-color="#07111f"/>
      <stop offset="1" stop-color="#030711"/>
    </radialGradient>
    <linearGradient id="route" x1="150" y1="150" x2="980" y2="560" gradientUnits="userSpaceOnUse">
      <stop stop-color="#8fe8e2"/>
      <stop offset="0.55" stop-color="#b8e6c9"/>
      <stop offset="1" stop-color="#8ea0ff"/>
    </linearGradient>
    <filter id="glow" x="-30%" y="-30%" width="160%" height="160%"><feGaussianBlur stdDeviation="7"/></filter>
  </defs>

  <rect width="1200" height="760" rx="44" fill="url(#bg)"/>
  <g opacity="0.11" stroke="#8fe8e2" stroke-width="1">
    <path d="M0 120h1200M0 240h1200M0 360h1200M0 480h1200M0 600h1200M150 0v760M300 0v760M450 0v760M600 0v760M750 0v760M900 0v760M1050 0v760"/>
  </g>
  <g fill="none" stroke="url(#route)" stroke-width="3" opacity="0.58">
    <path d="M202 322C315 214 410 210 535 292S762 430 934 288"/>
    <path d="M232 510C394 430 471 514 610 470s205-173 350-108"/>
    <path d="M346 164c110 92 179 112 315 88s205 6 312 114"/>
    <path d="M535 292l75 178M610 470l146-73M756 397l178-109M346 164l-114 346" opacity="0.75"/>
  </g>
  <g filter="url(#glow)" opacity="0.34">
    <circle cx="535" cy="292" r="54" fill="#8fe8e2"/>
    <circle cx="610" cy="470" r="48" fill="#b8e6c9"/>
    <circle cx="934" cy="288" r="44" fill="#8ea0ff"/>
    <circle cx="232" cy="510" r="34" fill="#d9c98b"/>
  </g>
  <g font-family="Inter, ui-sans-serif, system-ui, sans-serif" font-weight="800">
    <g fill="#07111f" stroke-width="7">
      <circle cx="202" cy="322" r="20" stroke="#8fe8e2"/>
      <circle cx="346" cy="164" r="20" stroke="#b8e6c9"/>
      <circle cx="535" cy="292" r="28" stroke="#8fe8e2"/>
      <circle cx="610" cy="470" r="26" stroke="#b8e6c9"/>
      <circle cx="756" cy="397" r="22" stroke="#8ea0ff"/>
      <circle cx="934" cy="288" r="25" stroke="#8ea0ff"/>
      <circle cx="232" cy="510" r="21" stroke="#d9c98b"/>
      <circle cx="960" cy="362" r="18" stroke="#8fe8e2"/>
    </g>
    <text x="70" y="84" fill="#eaf7f5" font-size="34">Civicnet federation relay</text>
    <text x="72" y="123" fill="#95aeb8" font-size="18" letter-spacing="3">FKA PUBLIC MAP · UPDATED 2040.11.03</text>
    <g fill="#c8d7da" font-size="16">
      <text x="176" y="294">Danube Compact</text><text x="330" y="136">Helsinki Freeport</text><text x="505" y="252">Rights Mesh</text><text x="574" y="530">Accra Works</text><text x="750" y="367">Kojo-Oslo audit</text><text x="915" y="246">LS Habitat</text><text x="162" y="574">Safe Passage</text>
    </g>
    <g transform="translate(825 560)">
      <rect width="290" height="118" rx="20" fill="#07111f" stroke="#20334b"/>
      <circle cx="28" cy="32" r="7" fill="#8fe8e2"/><text x="46" y="38" fill="#c8d7da" font-size="15">municipality / city federation</text>
      <circle cx="28" cy="62" r="7" fill="#b8e6c9"/><text x="46" y="68" fill="#c8d7da" font-size="15">commons trust / cooperative</text>
      <circle cx="28" cy="92" r="7" fill="#8ea0ff"/><text x="46" y="98" fill="#c8d7da" font-size="15">habitat / research chapter</text>
    </g>
  </g>
</svg>
