<svg xmlns="http://www.w3.org/2000/svg" viewBox="0 0 900 540" role="img" aria-labelledby="title desc">
  <title id="title">Alliance Council public credential</title>
  <desc id="desc">A restrained public credential card for the 2040 Alliance Council mandate register.</desc>
  <defs>
    <linearGradient id="edge" x1="0" y1="0" x2="1" y2="1">
      <stop stop-color="#8fe8e2"/>
      <stop offset="0.55" stop-color="#b8e6c9"/>
      <stop offset="1" stop-color="#8ea0ff"/>
    </linearGradient>
    <radialGradient id="field" cx="45%" cy="30%" r="80%">
      <stop offset="0" stop-color="#142a42"/>
      <stop offset="0.7" stop-color="#07111f"/>
      <stop offset="1" stop-color="#030711"/>
    </radialGradient>
  </defs>
  <rect width="900" height="540" rx="42" fill="#030711"/>
  <rect x="22" y="22" width="856" height="496" rx="32" fill="url(#field)" stroke="url(#edge)" stroke-width="3"/>
  <g opacity="0.11" stroke="#8fe8e2"><path d="M80 90h740M80 170h740M80 250h740M80 330h740M80 410h740M150 55v430M300 55v430M450 55v430M600 55v430M750 55v430"/></g>
  <g transform="translate(70 70)">
    <circle cx="75" cy="75" r="65" fill="#07111f" stroke="url(#edge)" stroke-width="6"/>
    <path d="M75 28c15 22 24 37 24 47s-9 25-24 47c-15-22-24-37-24-47s9-25 24-47Z" fill="#eaf7f5"/>
    <path d="M28 75c22-15 37-24 47-24s25 9 47 24c-22 15-37 24-47 24s-25-9-47-24Z" fill="#8fe8e2" opacity="0.88"/>
    <circle cx="75" cy="75" r="17" fill="#07111f" stroke="#eaf7f5" stroke-width="3"/>
    <circle cx="75" cy="75" r="6" fill="#b8e6c9"/>
    <text x="170" y="48" fill="#95aeb8" font-family="Inter,system-ui,sans-serif" font-size="17" font-weight="800" letter-spacing="5">PUBLIC CREDENTIAL · 2040–2044</text>
    <text x="170" y="103" fill="#eaf7f5" font-family="Inter,system-ui,sans-serif" font-size="42" font-weight="900">Alliance Council</text>
    <text x="173" y="142" fill="#b8e6c9" font-family="Inter,system-ui,sans-serif" font-size="21" font-weight="800" letter-spacing="4">RECALLABLE MANDATE REGISTER</text>
  </g>
  <g font-family="Inter,system-ui,sans-serif" transform="translate(82 255)">
    <text x="0" y="0" fill="#8fe8e2" font-size="16" font-weight="900" letter-spacing="4">OPERATING LIMITS</text>
    <text x="0" y="45" fill="#eaf7f5" font-size="26" font-weight="800">Offices propose · Members ratify · Rights remain</text>
    <text x="0" y="91" fill="#95aeb8" font-size="17">No asset sale · no suspended exit · no black-box sovereignty</text>
    <text x="0" y="136" fill="#95aeb8" font-size="17">Conflict registers auditable on civicnet relay FKA-PUB-7712</text>
  </g>
  <g transform="translate(690 338)" font-family="Inter,system-ui,sans-serif">
    <rect width="128" height="92" rx="18" fill="#07111f" stroke="#8fe8e2" stroke-opacity="0.42"/>
    <path d="M28 46h72M64 16v60" stroke="#b8e6c9" stroke-width="3" opacity="0.65"/>
    <text x="64" y="118" text-anchor="middle" fill="#95aeb8" font-size="13" font-weight="800" letter-spacing="2">VERIFY / FKA</text>
  </g>
</svg>
